<?xml version="1.0" encoding="utf-8"?>
<!-- Generator: Adobe Illustrator 22.0.0, SVG Export Plug-In . SVG Version: 6.00 Build 0)  -->
<svg version="1.1" id="图层_1" xmlns="http://www.w3.org/2000/svg" xmlns:xlink="http://www.w3.org/1999/xlink" x="0px" y="0px"
	 viewBox="0 0 197.2 58.9" style="enable-background:new 0 0 197.2 58.9;" xml:space="preserve">
<style type="text/css">
	.st0{enable-background:new    ;}
	.st1{fill:#C2C9D3;}
</style>
<g class="st0">
	<path class="st1" d="M66.7,6.3c0,0.2-0.1,0.6-0.3,1.1c-0.2,0.5-0.2,0.8-0.2,1.1l-0.5,0.3L63.6,9c-0.3-0.3-0.6-0.7-1-1.4
		c-0.4-0.7-0.7-1.2-1-1.5c-1.1,0.3-1.8,0.6-2,0.8v0.2l-0.7,0.2c-0.2,0.2-0.6,0.5-1.1,0.7v0.7c0,0.1,0.1,0.4,0.2,0.8l-0.4,1.2h-0.2
		v0.5l-1.1,1l-0.5,0.2l-0.2,0.7L55,13.4v0.7h-0.2c-0.2,0.8-0.3,1.3-0.2,1.5l-0.4,0.2v0.8l-0.3,0.5l-1,0.5l-0.2,0.3l0.1,0.7
		c-0.2,0.2-0.3,0.5-0.5,0.7c-0.1,0.5-0.2,1.3-0.4,2.3c-0.3,0.6-0.6,1.4-1,2.6c-0.6,0.6-1.3,1.4-2.3,2.6c-0.3,0.5-0.7,1.2-1.4,2.1
		l-0.1,0.4c-0.7,0.8-1,1.4-1,1.8c-0.2,0.2-0.6,0.5-0.9,1h0.2v0.2c-0.2,0.5-0.2,0.7-0.2,0.7l-0.5,0.2l-0.2,1l0.2,0.5
		c-0.4,0.3-0.8,1.1-1.1,2.4h-0.2v0.5c-0.9,0.6-1.7,1.6-2.2,2.9l-0.5,0.3l-0.4,0.8L39.2,42v0.2h-0.2c-1.3,1.4-2.5,2.4-3.6,3.1
		l-0.2,1.2l-0.7,0.8v0.2h-0.2l-0.4,1l-0.7,0.2l0.2,0.3l0.5,0.2c1.1,0.5,2.8,1.1,5.2,1.9l0.4,0.3h1.4c0.7-0.3,1.3-0.5,2-0.8
		c1-0.4,1.7-0.5,2-0.4l2.7-1l0.2-0.4l2-0.1l2.2,0.1l1.5,0.8v0.4l0.5,0.5v0.8l-0.5,0.2l-0.2,0.8l-0.9,0.8v0.5l-2.2,0.7
		c-0.4,0-0.8,0-1.5,0c-0.7,0.1-1.2,0.1-1.5,0.1c-0.1,0-0.2,0-0.4-0.1s-0.3-0.1-0.4-0.1c0,0-1,0-3,0.1c-1-0.3-2-0.7-2.9-1.2h-1.5
		L37.7,54H37l-0.5,0.3v0.2l-1.3,0.1l-2,1.1l-1.1,0.2v0.3c-2.7,0.3-4.6,0.9-5.7,1.7c-0.3-0.1-1.6,0.2-4,0.9l-1.8-0.2l-1.2-1l-0.9-0.3
		l-0.4-1l-0.5-0.2v-0.1l-0.9-0.4H14l-0.7-0.3h-1.5l-0.9-0.4C9.3,55,8.5,55,8.4,55c-1.1,0-1.9-0.2-2.5-0.7l-0.3-0.7
		c-0.8-0.8-2.1-1.4-3.8-1.7C0.6,50.6,0,49.3,0,48.3c0-0.1,0-0.3,0-0.4l1.1-1h0.9l0.6-0.6l1.5-0.1l1-0.4c0.7,0.2,1.7,0.3,3.1,0.3
		c1.4,0,2.4,0.2,3,0.3c0.6-0.1,1.7-0.3,3.3-0.8c1.2-0.3,2.6-0.5,4.1-0.5c0.6,0,1.6,0.1,2.8,0.4c1.3,0.3,2.1,0.6,2.6,0.9h0.9l0.2,0.3
		l2.2,0.4l0.9,0.5c0.6-0.8,1.4-1.6,2.5-2.6c0.4-0.7,0.8-1.3,1.4-1.9v-0.7c0.3-0.4,0.8-1,1.5-1.9v-0.5l0.4-0.1l0.2-0.4l0.9-0.5V39
		l0.4-0.7l0.5-0.3c0.7-1.5,2-3.6,3.8-6.4c0-0.1,0.5-0.4,1.4-0.8c0.2-0.4,0.5-0.8,1-1.4L42,29.2c0.3-0.3,0.5-0.8,0.7-1.4
		c0.2-0.8,0.4-1.3,0.5-1.4c0.3-0.7,0.9-1.5,1.7-2.4v-0.5l0.7-0.7v-0.3l0.7-1.4l0.6-0.5l0.2-1l-0.4-0.8l0.1-0.7l0.8-0.7
		c0.5-1.9,1.5-3,2.8-3.5c0.9-1.2,1.6-2.6,2-4.3L51.9,9c-1.2,1-2.4,1.9-3.8,2.6v0.3l-0.7,0.3l-0.2,0.2c-0.1,0-0.8,0.4-2,1L44.7,14
		l-1.6,0.7l-0.9,0.8H42c-1,0.6-2.4,1.6-4.1,2.9l-1.4,0.5l-0.1,0.8l-0.3,0.4l0.1,0.9l0.1,0.1l0.2,1.7c0,0.3-0.1,0.7-0.3,1.3
		c-0.2,0.6-0.3,1-0.3,1.3h0.2c0.2,0.5,0.3,0.8,0.2,1.1l0.2,0.1l-0.2,1.2l0.8,0.2c0.3-0.3,0.8-0.5,1.2-0.7l0.4-0.8l1.4-0.2l0.7,0.2
		l0.4,0.5l-0.6,0.9c-1,0.6-2,0.9-3,1.1l-1.4-0.1L35.7,29l-1.1-0.1l-0.5-1.2c-0.4-0.4-1-1-1.8-1.9l-0.7-0.4l-0.6-1.9
		c0-0.2,0-0.3,0.1-0.4l-0.6-1l0.1-1c0.3-0.6,0.8-1.2,1.3-1.7c0.7-0.4,1.3-0.8,2-1.1c0.7-0.4,1.5-0.6,2.3-0.7l0.7-0.5H37l0.7-0.9
		c0.6-0.2,1.2-0.5,2-1.2c0.9-0.8,1.5-1.2,1.8-1.4c0.3-0.2,1.2-0.5,2.8-1.1c1-0.4,1.9-0.9,2.6-1.6l0.4-0.1c0.8-0.7,1.8-1.4,3-2.1
		L50.5,8l1.2-0.7H53c0.9-0.4,2.2-1,4-1.8c0.5-0.1,1.2-0.3,2.1-0.5c1-0.4,2.2-0.8,3.6-1.4h0.9c-0.1,0,0.4,0.1,1.5,0.2
		c1,0.6,1.5,1.1,1.6,1.4V6.3z M28,50.8v-0.3l-1.4-1.2v-0.4l-0.4-0.5c-0.6-0.2-1.3-0.3-2.3-0.3l-1.8-0.8c-1.1-0.1-2.2-0.3-3.3-0.5
		c-0.5,0.2-1.3,0.3-2.2,0.3c-1.1,0.1-1.8,0.1-2.2,0.2c-0.5,0.2-1.1,0.4-2,0.7c-0.7,0.1-2.1,0.2-4.3,0.3c-1.8,0.1-3.2,0.3-4.2,0.7
		c-0.7,0.8-1.1,1.4-1.1,1.9C3,51,3.7,51.4,4.8,52l1.6,0.1l1.1,1c0.8,0.5,2,0.8,3.6,1c2.1,0.2,3.4,0.4,3.9,0.5l1.2-0.1l0.2-0.4
		l-0.7-0.5c-1-0.1-1.9-0.3-2.7-0.7l-0.9-0.7H12l-1.5-1v-0.3l0.9-1.5l1.1-0.1l2,0.5c0.2,0.1,0.3,0.3,0.5,0.5c0.6,0.2,1.1,0.4,1.3,0.7
		l0.2,1.2l0.4,0.4c0,0.6,0.4,1.3,1.2,2.1h1.3l2-0.5c0.8-0.4,1.3-0.8,1.6-1.2l0.9-0.2v-0.1l2.5-0.5L28,50.8z M35.9,53.1v-0.3
		c-1-0.3-2.6-0.5-5-0.7c-1.3,0.2-2.5,0.8-3.8,1.5v0.2h-0.9c-0.8,0.4-1.6,0.6-2.3,0.7v0.1l-2,0.9l-1.9,0.2l-0.2,0.3l0.7,0.5h0.7v-0.1
		l2,0.5l1.6-0.4l0.4-0.5c1.4-0.3,3.5-0.7,6.6-1.2l0.2-0.3c0.4-0.2,1-0.4,1.9-0.7C34.9,53.6,35.5,53.3,35.9,53.1z M50.5,52.1v-0.8
		h-0.2l-0.2-0.7l-0.2-0.2c-0.5,0.1-1.4,0.3-2.7,0.3l-0.2,0.2c-1,0.3-2.6,0.8-4.7,1.4v0.2l1.1,0.5l2.1,0.1l0.4-0.3
		c1-0.4,2.3-0.5,4.1-0.3L50.5,52.1z"/>
	<path class="st1" d="M65.7,36.8c0,0.3-0.1,0.7-0.4,1.2l-0.4,0.2l-0.2,0.3h-0.2l-0.4,0.4L63,39c-0.1,0.1-0.2,0.3-0.4,0.5
		s-0.3,0.4-0.4,0.5l-0.7,0.4l-0.9,0.2l-0.2,0.2l-0.9,0.1l-0.2,0.2L58,40.7c-0.9,0.1-1.8-0.1-2.7-0.4v-0.1c-0.2-0.2-0.3-0.3-0.4-0.4
		l-0.4-0.1c-0.4-0.5-0.6-1-0.6-1.5l0.3-0.6c0.3-0.2,0.9-0.8,1.7-1.9c0.5-0.7,1-1.4,1.5-2.2c0-0.4,0.4-1.2,1-2.6v-0.3l0.2-0.2v-0.2
		H59l0.5-0.8l-0.1-0.8l-0.2-0.2c-0.6,0-1.1,0.2-1.6,0.5v0.2c-0.8,0.2-1.4,0.3-1.8,0.5l-0.5,0.4c-0.4,0-0.8,0.2-1.3,0.3l-0.5,0
		l-0.4-0.3L53,29.8l0.1-0.5c0.7-0.4,1.3-0.7,1.8-0.8c0.7-0.1,1.3-0.2,2-0.3c0.3-0.1,0.7-0.2,1.2-0.4c1.2-0.4,2.7-0.6,4.5-0.6
		c0,0,0.2,0,0.5,0.1s0.4,0.1,0.5,0.1c0.4,0.3,0.7,0.6,0.9,1h0.2c0.2,0.2,0.2,0.6,0.2,1.3c0,0.1-0.1,0.3-0.2,0.8
		c-0.1,0.1-0.5,0.4-1,0.8L63,31.5L62.8,32h-0.2l-0.4,0.3c0.1,0.5,0,1-0.2,1.5h-0.2c-0.1,0.4-0.2,0.7-0.5,1l-0.7,0.5
		c-0.5,1.2-0.7,1.9-0.7,1.9h-0.2c0,0.3-0.1,0.7-0.3,1.2l0.1,0.6c0.6,0,1.5-0.3,2.5-0.8s1.7-0.9,2-1.3l0.7-0.3l0.6,0L65.7,36.8z
		 M68.7,18.9l-0.4,0.3c-0.1,0.7-0.4,1.2-0.9,1.4V21l-0.5,0.4l-0.2,0.7l-0.8,0.1c-0.1,0.5-0.3,0.9-0.6,1.2c-0.5,0.2-0.9,0.5-1.2,0.8
		l-0.8,0.2l-0.6-1c0-0.3,0.1-0.9,0.1-1.5c0.6-0.7,0.7-1.4,0.4-2.2c0.3-0.5,0.7-1,1.1-1.4l1.1-0.3l0.2-0.2c0.3-0.1,0.7-0.2,1-0.2h1
		c0.5,0.2,0.8,0.4,1.1,0.7V18.9z"/>
	<path class="st1" d="M94.4,36.4c-0.2,0.2-0.7,0.5-1.4,0.8c-0.7,0.3-1.1,0.5-1.2,0.6v0.2c-0.3,0.2-0.6,0.4-1.1,0.7l-0.4,0.7L89.3,40
		L89,40.3c-0.7,0.4-1.9,0.5-3.5,0.4c-0.9-0.2-1.8-0.5-2.5-0.8l-0.2-0.8c0.1-0.7,0.3-1.5,0.8-2.4c-1.1,0.2-2,0.6-2.5,1.1
		c-0.9,0.8-1.4,1.3-1.5,1.4l0.1,0.1c0,0.1-0.1,0.1-0.2,0.3c-0.1,0.1-0.1,0.2-0.2,0.3h-0.9c-0.6,0.4-1.4,0.6-2.3,0.7
		c-1.9,0-3.6-0.6-5.1-1.7c-0.2-0.6-0.5-1.4-0.8-2.4c0-1.1,0.3-2,1-2.8v-0.1c1.3-1.2,1.8-2.3,1.6-3.1l-0.5-0.2l-0.2,0.2h-0.5
		l-0.4,0.3l-0.7,0.2l-1.1-0.2l0.3-1.2l0.8-0.5c0.7-0.1,1.4-0.2,2.3-0.2l0.7-0.3h0.5l0.2-0.3l0.9-0.2l0.4-0.8l0.2-0.2l0.9,0.3
		l1.1-0.3l1.4,0.3c0.1,0.3,0.1,0.9,0.2,1.5l-0.2,0.3L78,29.5c-0.1,0.1-0.3,0.4-0.5,0.8h-0.2c-0.2,0.9-0.5,1.5-0.9,1.7v0.1
		c-0.2,0.1-0.5,0.4-0.9,0.9l-0.2,1.4L75,34.6c-0.4,0.5-0.5,1-0.4,1.6l0.2,0.2c-0.1,0.2,0.1,0.7,0.6,1.4s0.8,1.1,1.2,1.3h0.8
		c0.1-0.1,1-0.7,2.7-2l0.7-0.2l0.1-0.3c0.3-0.1,0.6-0.2,0.7-0.4l0.4-0.1v-0.2c0.2-0.3,0.4-0.5,0.7-0.9c0.5-0.1,0.9-0.3,1.4-0.6
		c0.7-0.4,1.1-0.7,1.2-0.7c0.1-0.3,0.2-0.6,0.4-0.7H86c0.3-0.7,0.8-1.7,1.5-3c0.2-0.2,0.5-0.6,0.9-1.1c-0.1-0.3,0-0.7,0.2-1l1.8-0.6
		l1.5,0.4c0.2,0.3,0.3,0.8,0.2,1.2l-0.2,0.3v0.5h-0.2l-0.7,1h-0.2c-0.3,0.2-0.5,0.7-0.7,1.5h-0.2c-0.1,0.4-0.4,0.9-0.7,1.4v0.8
		l-0.7,1.2l-0.2,0.2l-0.7,1.4v0.5c0,0.1,0,0.2,0,0.4c0,0.2,0,0.3,0,0.4c0.8-0.4,1.3-0.7,1.5-0.9l1.4-0.1l0.2-0.2v-0.3
		c0.4-0.3,1-0.8,1.8-1.4c0.6-0.2,1-0.2,1.2-0.2l0.7,0.7V36.4z"/>
	<path class="st1" d="M186,3.6l-0.4,0.7v1l-0.9,1.1c-1,0.4-2.6,0.9-4.7,1.4l-0.3,0.3c-1.7,0.1-2.6,0.1-2.7,0.1c-2.4,0-5-0.5-7.6-1.4
		l-0.9,0.2c-0.3,0.3-0.7,0.6-1.2,1c-0.7,0.4-1.1,0.7-1.3,0.9c-0.4,0.8-1.3,1.9-2.5,3.4c0.8,0.9,1.2,1.8,1.1,2.6l-0.7,1.2h-0.4
		l-0.2,0.8l0.2,1l-0.4,0.7v1l-0.5,0.8l0.2,0.2c-0.8,1.9-1.3,3.1-1.5,3.4c-0.7,1.3-1.6,2.4-2.5,3l-0.2,0.7l0.4,0.7
		c-0.1,0.3-0.2,0.8-0.4,1.5h-0.2c-0.5,0.5-0.8,1.2-1.1,2.1c-0.8,2.3-1.2,3.9-1.2,4.8c0,0.4,0,0.7,0.1,1l0.9,1l1.4,0.5l0.4,0.8
		c0.5,0.3,1.1,0.6,1.8,0.8l2-0.8l0.5-0.7l-0.2-1l0.2-0.7l0.9-0.3c0.8-1,1.5-1.5,2-1.7l0.2-0.9l0.9-0.8h0.5l0.9,0.7l0.4,0.9l-0.2,0.7
		c-0.9,0.7-1.9,1.4-2.9,2c-0.5,1-0.8,1.8-1,2.3c-0.5,0.3-0.9,0.6-1.2,1l-1.8,0.9h-1.3c0.2,0-0.9-0.2-3.1-0.5l-0.9-0.7
		c-0.7-0.2-1.4-0.2-2-0.2l-0.4-0.3l-2.1-0.7l-0.9-1c0.1-0.7,0-1.3-0.2-1.9c-0.1-0.1-0.2-0.3-0.2-0.5v-1.8c0-0.2,0.1-0.5,0.3-0.9
		c0.2-0.4,0.2-0.7,0.2-1l0.2-0.2c-0.1-1,0-1.7,0.2-2.2c0-0.1,0.6-0.7,1.5-1.8c1.5-1.7,2.6-3.6,3.4-5.6c0,0,0.1-0.1,0.2-0.3v-0.7
		l-0.5-0.3h-0.9l-0.9,0.5c-0.3,0.5-0.9,1.2-1.8,2s-1.5,1.6-1.8,2.1c0.1,0.6-0.1,1.1-0.6,1.7l-1,0.8v1l-1.4,1.9l-0.9,0.5l-0.2,0.7
		h-0.2v0.3l-1.9,1.4l-0.4,0.7l-1.4,0.7l-1.1,1.4l-1.8,0.5l-0.2,1.4c-0.4,0.3-0.9,0.6-1.5,0.8l-0.2,0.7l-3.1,0.2l-0.4-1.4l0.4-0.7
		h0.2v-1.2l0.4-0.4l-0.4-1c-0.5-0.3-1-0.7-1.6-1.2v-0.5h-0.2c0.1-1.4,0.2-2.1,0.2-2.2l-0.2-1.5c0-0.4,0.2-1,0.4-1.8
		c0.3-0.4,0.6-1,0.9-1.8c0-0.4,0-1.1,0.2-2c-0.1-0.2-0.4-0.7-0.7-1.7c-0.3-0.9-0.4-1.5-0.4-1.7c0.3-1.1,0.7-1.9,1.2-2.4
		c0-0.6-0.2-1.5-0.5-2.5c-0.2,0.2-0.4,0.6-0.5,1.2l-0.9,0.2l-0.4,1.5l-0.9,0.7v0.2l-0.7,0.7v0.4l-0.2,0.1c-0.1,0.3-0.4,0.7-0.9,1.3
		c-0.5,0.4-0.7,1.1-0.9,2l-1.1,1.5l-0.7,0.4c-0.5,0.9-1.4,2.2-2.6,3.9l-1.2,0.6c-0.4,0.5-1,1.3-1.8,2.3v0.1c-0.3,1-1,2-2,2.9
		c0,0.6-0.3,1.3-0.9,2.1l-1.8,0.5l-0.6,0.7l-1.4,0.2l-0.5,0.3c-0.3,0-0.9,0.1-2,0.1c-0.8,0-1.5,0.1-2,0.1c-0.9,0-2-0.1-3.3-0.4
		c-1.7-0.4-2.8-0.6-3.2-0.6c-0.1-0.1-0.6-0.4-1.4-0.8l-1.1-1.5c-0.9-0.4-2.1-1.3-3.4-2.7l-0.4-1.9l0.4-1.4l1.4-1.2l1.4-0.3l0.9-0.6
		h0.9l0.9,0.8h0.2l0.2,0.5l0.4,0.3l0.5,1.7l-0.2,0.3l-0.7,0.3c-0.8-0.1-1.6-0.4-2.3-0.8l-1.4-0.2l-0.5,0.5c0.1,0.9,0.7,1.7,1.6,2.4
		l0.9,0.4c0.7,0.6,1.1,1.1,1.1,1.7l1.1,0.5h1.1l1.6,0.7c1.7,0.2,2.5,0.3,2.5,0.3c-0.5,0,1.1-0.1,4.7-0.3c0.5-0.2,1.2-0.5,2.1-0.9
		c1.5-1.2,2.5-2.4,3-3.6v-1c0.2-0.5,0.5-0.9,1.1-1.2c0.3-0.7,0.7-1.3,1.1-1.7l1.1-0.3c0.2-0.2,0.4-0.5,0.7-0.8
		c0.3-0.5,0.6-1,0.9-1.5c0.3-0.5,0.8-0.9,1.5-1.2l0.5-1.2l0.9-0.7c0.1-0.8,0.3-1.4,0.7-2.1h0.5c0.6-0.7,0.9-1.3,0.9-1.9l1.1-1
		c-0.1-0.5,0.4-1.9,1.6-4.3l-0.5-1.9l-0.9-0.8h-0.2l-0.2-0.5c-1.7-0.5-3.9-0.8-6.5-0.8c-0.7,0-1.9,0-3.3,0.1s-2.6,0.1-3.3,0.1
		c-0.3,0-0.7,0-1.3-0.1c-0.6-0.1-1.1-0.1-1.3-0.2h-2.2c-0.8,0.2-1.6,0.4-2.5,0.7c-0.1,0-0.7,0.4-1.8,1v0.5c0.2,0.5,0.5,0.9,1.1,1.2
		l1.1,0.3l0.2,0.2v0.1h0.7l0.9,0.4h3c0.2,0,0.5-0.1,0.8-0.2c0.7-0.2,1.7-0.5,3-1.1c1.2-0.5,2.4-0.9,3.8-1.2l0.7,0.1l0.6,0.8
		l-0.4,0.9c-0.5,0.3-1.1,0.8-1.9,1.5c-1.2,0.2-2.3,0.5-3.1,0.9l-1.6-0.2c-0.5,0.1-0.9,0.2-1.1,0.2c-0.3,0-0.6,0-1.1-0.1
		s-0.9-0.1-1.1-0.1s-0.6,0.1-1.1,0.2l-2-0.4l-0.7-0.7h-0.4c-1.9-1.1-3-2-3.1-2.6h-0.2l-1.1-1.4v-0.7c2-1.6,4.8-2.3,8.3-2.3
		c0.1,0,0.5,0.1,1.2,0.2s1.1,0.2,1.3,0.2c2.9,0.2,7,0.2,12.1,0c0.8,0.3,2.1,0.5,3.9,0.5l0.5,0.2h2.5c0.9-0.2,1.8-0.5,2.9-0.7
		l0.4-0.3h0.5c0.9,0.6,1.5,1.3,1.6,2.2c-0.6,1.4-0.8,2.3-0.7,2.6H139c-0.4,1.1-0.6,1.9-0.5,2.6l0.5,0.3l-0.5,0.8l0.2,0.7l-0.2,0.1
		c0.1,0.3-0.1,1.1-0.9,2.4h-0.2l-0.7,0.9v0.8l0.4,0.7l0.2,0.1c1.2,1.2,1.8,3.2,1.8,6c0-0.1-0.1,0.6-0.4,2l-0.7,0.5
		c-0.2,1.3-0.2,1.8-0.2,1.5c0,0.3,0.1,1,0.3,1.9l0.7,0.6l1-0.8l1.6-0.4c0.7-0.5,1.4-1.1,2.2-1.9c0.1-0.3,0.3-0.6,0.5-1.1
		s0.4-0.9,0.5-1.1l0.9-0.8c0.6-1.5,1.1-2.7,1.4-3.6c0.9-0.4,1.6-1.1,2.3-2c0.6-0.8,1.1-1.3,1.5-1.5c0.5-0.5,0.8-1.2,0.9-1.9l2-1.2
		l0.5-0.5h0.9l0.5-1l-0.2-0.2V18l0.7-0.5c0-0.1,0-0.4,0.2-0.8l0.4-0.2l0.7-1.2l0.4-0.1h0.7l0.9-0.7v-0.3l0.2-0.2l0.2-1.2
		c0.3-0.1,0.5-0.4,0.7-0.9l0.4-0.1c1-0.6,2.2-2,3.4-4.1c0.1-0.1,0.5-0.3,0.9-0.8L164,6.4l-3.6,0.2c-1-0.2-2.5-0.9-4.3-1.9h-1.7
		L152.5,4c0.5,0-0.8-0.1-3.8-0.2h-4l-2.3,0.7c0,0,0,0.1-0.1,0.3c-0.1,0.2-0.1,0.3-0.1,0.3c0,0.1,0.1,0.5,0.2,1.4L143,7
		c0.4-0.1,1.8-0.5,4.1-1.4c0.6,0.2,1.3,0.5,2,0.9l0.2,0.7L148,8.8c-0.2,0-0.5,0-0.9,0.1c-0.4,0.1-0.7,0.1-0.9,0.1
		c-0.5,0-1.1-0.1-2-0.2c-1-0.1-1.7-0.2-2-0.3l-1.6-0.9V7.2l-0.7-0.5l0.2-0.3c-0.7-1.1-1-2-1-2.6c0-0.1,0-0.2,0.1-0.3h0.5l0.2-0.3
		l0.2-0.2c0.3,0,0.8,0,1.6-0.2s1.3-0.2,1.6-0.2l1.8-0.5h2.5c0.2,0,0.6,0.1,1.2,0.2c0.5,0.1,0.9,0.2,1.3,0.1l0.5-0.3
		c1.5,0,3.7,0.2,6.6,0.5l1.5,1.1l1.5,0.4l0.1,0.6c0.7,0.1,1.6,0.3,2.9,0.5c0.8,0,2.1,0.1,3.6,0.3l1.1-0.8l1.1-0.2
		c0.1-0.3,0.4-0.5,0.7-0.8V3.3c1.1-0.6,1.8-1,2.2-1.4V1.2h0.2l0.7-0.5l2.5-0.3l0.7-0.3h3.6c0.1,0,0.5,0.1,1.1,0.3s1,0.3,1.2,0.4h0.7
		l0.2-0.3l0.9,0.3l2,1.7L186,3.6z M182.6,4.4l-0.4-0.3l-0.3-1.4l-2.1-0.1V2.1l-0.4-0.3l-3-0.2l-2,0.7l-0.2,0.5
		c-0.7,0.1-1.5,0.6-2.3,1.4v0.2l-1.1,0.5v0.5l0.4,0.4l1.6,0.7c1.4-0.1,2.8,0,4.1,0.4c2-0.1,3.8-0.5,5.4-1.2L182,4.8l-0.4-0.2
		L182.6,4.4z"/>
	<path class="st1" d="M197.2,36.4c-0.2,0.2-0.7,0.5-1.4,0.8c-0.7,0.3-1.1,0.5-1.2,0.6v0.2c-0.3,0.2-0.6,0.4-1.1,0.7l-0.4,0.7L192,40
		l-0.2,0.4c-0.7,0.4-1.9,0.5-3.5,0.4c-0.9-0.2-1.8-0.5-2.5-0.8l-0.2-0.8c0.1-0.7,0.3-1.5,0.8-2.4c-1.1,0.2-2,0.6-2.5,1.1
		c-0.9,0.8-1.4,1.3-1.5,1.4l0.1,0.1c0,0.1-0.1,0.1-0.2,0.3s-0.1,0.2-0.2,0.3h-0.9c-0.6,0.4-1.4,0.6-2.3,0.7c-1.9,0-3.6-0.6-5.1-1.7
		c-0.2-0.6-0.5-1.4-0.8-2.4c0-1.1,0.3-2,1-2.8v-0.1c1.3-1.2,1.8-2.3,1.6-3.1l-0.5-0.2l-0.2,0.2h-0.5l-0.4,0.3l-0.7,0.2l-1.1-0.2
		l0.3-1.2l0.8-0.5c0.7-0.1,1.4-0.2,2.3-0.2l0.7-0.3h0.5l0.2-0.3l0.9-0.2l0.4-0.8l0.2-0.2l0.9,0.3l1.1-0.3l1.4,0.3
		c0.1,0.3,0.1,0.9,0.2,1.5l-0.2,0.3l-1.1,0.2c-0.1,0.1-0.3,0.4-0.5,0.8h-0.2c-0.2,0.9-0.5,1.5-0.9,1.7v0.1c-0.2,0.1-0.5,0.4-0.9,0.9
		l-0.2,1.4l-0.2,0.1c-0.4,0.5-0.5,1-0.4,1.6l0.2,0.2c-0.1,0.2,0.1,0.7,0.6,1.4c0.5,0.7,0.8,1.1,1.2,1.3h0.8c0.1-0.1,1-0.7,2.7-2
		l0.7-0.2l0.1-0.3c0.3-0.1,0.6-0.2,0.7-0.4l0.4-0.1v-0.2c0.2-0.3,0.4-0.5,0.7-0.9c0.5-0.1,0.9-0.3,1.4-0.6c0.7-0.4,1.1-0.7,1.2-0.7
		c0.1-0.3,0.2-0.6,0.4-0.7h0.2c0.3-0.7,0.8-1.7,1.5-3c0.2-0.2,0.5-0.6,0.9-1.1c-0.1-0.3,0-0.7,0.2-1l1.8-0.6l1.5,0.4
		c0.2,0.3,0.3,0.8,0.2,1.2l-0.2,0.3v0.5h-0.2l-0.7,1h-0.2c-0.3,0.2-0.5,0.7-0.7,1.5h-0.2c-0.1,0.4-0.4,0.9-0.7,1.4v0.8l-0.7,1.2
		l-0.2,0.2l-0.7,1.4v0.5c0,0.1,0,0.2,0,0.4s0,0.3,0,0.4c0.8-0.4,1.3-0.7,1.5-0.9l1.4-0.1l0.2-0.2v-0.3c0.4-0.3,1-0.8,1.8-1.4
		c0.6-0.2,1-0.2,1.2-0.2l0.7,0.7V36.4z"/>
</g>
</svg>
