<?xml version="1.0" encoding="utf-8"?>
<!-- Generator: Adobe Illustrator 22.0.0, SVG Export Plug-In . SVG Version: 6.00 Build 0)  -->
<svg version="1.1" id="图层_1" xmlns="http://www.w3.org/2000/svg" xmlns:xlink="http://www.w3.org/1999/xlink" x="0px" y="0px"
	 viewBox="0 0 370.3 372.4" style="enable-background:new 0 0 370.3 372.4;" xml:space="preserve">
<style type="text/css">
	.st0{fill:#23282E;}
	.st1{fill:#FFFFFF;}
	.st2{fill:#FFFFFF;stroke:#000000;stroke-miterlimit:10;}
	.st3{fill:#FFFFFF;stroke:#000000;stroke-width:4.252;stroke-miterlimit:10;}
	.st4{fill:none;stroke:#23282E;stroke-width:4.252;stroke-linecap:round;stroke-miterlimit:10;}
	.st5{fill:none;stroke:#000000;stroke-width:4.252;stroke-miterlimit:10;}
	.st6{fill:#FFFFFF;stroke:#FFFFFF;stroke-miterlimit:10;}
</style>
<path class="st1" d="M181.1,35.2c-83.4,0-151,67.6-151,151c0,31,9.4,59.9,25.4,83.9c0.2,0,30.7-5,40.3-9.1
	c13.5-5.7,32.1-20.1,47.7-38.6c5.9-7,19.5-25.6,19.1-26.2c-0.1-0.2-2.1-0.6-4.3-1c-6.5-1-10.1-2-15.2-4.4c-3.8-1.8-6-3-10.2-6.7
	c-3.9-3.5-5.3-5.6-7-9.3c-1.8-3.8-2.2-5.7-2.5-8c-1.2-7.7,0.5-11.8,15.4-10.7c5.3,0.4,11.2,2.8,15.8,4.3c6,2,11.9,5.2,21.2,11.5
	c8.7,5.9,13.8,8.7,15,8.3c0.7-0.2,0.8-0.8,0.6-2.9c-0.6-6.8-10.1-20.2-26.6-37.5c-11.6-12.2-20.8-22.9-22.7-26.4
	c-2.2-3.9-4.1-10.1-5.3-33c-0.5-9.3-0.5-16.3-0.5-16.6c-0.1-4.6,3.4-7.8,7-8.1c5.1-0.4,8.6,3.9,9.2,8.5c0.2,1.8,0.3,8.2,1.2,17.9
	c1.8,19.7,3.4,23.1,4,24.3c0.3,0.5,2.1,3.4,5.4,5.7c3.3,2.3,6.2,4,6.3,3.7c0.1-0.3,0-2.8-0.3-5.5c-0.5-5.6-0.3-6.2,0.2-21.3
	c0,0,0.4-6.1,0.6-9c0.3-5.3,4.3-7.1,7.8-7.1s6.9,2.6,6.8,7.3c0,2.8,0,4.5,0,4.5c0.2,2.8,0.6,6.9,0.9,17.8c0.5,19.5,1,26,2.3,29.9
	c0.4,1.3,1.9,3.2,4.4,5.7c2.1,2,3.9,3.6,4,3.5c0.1-0.1,2.2-3.4,4.5-7.2c4.6-7.6,9.6-18.5,12.2-22.6c3.4-5.3,5.5-8,11-7.3
	c1.4,0.2,3.4,1,4.1,2.3c1.4,2.5,1.4,5-0.5,10.5c-2.7,8-7.3,16.2-16.8,30l-5.8,8.4l4.2,7.7c2.9,5.3,5,8.5,6.8,10.3
	c2.5,2.5,2.8,2.7,6.2,3.1c9.4,1.2,15.5,5.6,46.1,32.8c15.2,13.6,23,20.2,28.6,24.4c9.1,6.8,11.2,11.3,8.7,18.9
	c-1.8,5.4-6.6,11.4-10.9,13.5c-4,1.9-18.5,3.5-39.4,4.3c-17,0.7-28.4,0.1-36.9-1.8c-7.3-1.6-9.2-1.6-10.8,0
	c-1.3,1.3-1.5,1.9-4.7,14.4c-4.8,18.4-20.7,39-27.2,44.7c-4.1,3.6-12.5,8.1-12.6,8.1c6.1,0.7,12.2,1.1,18.5,1.1
	c83.4,0,151-67.6,151-151S264.5,35.2,181.1,35.2z"/>
</svg>
